<?xml version="1.0" encoding="iso-8859-1"?>
<!-- Uploaded to: SVG Repo, www.svgrepo.com, Generator: SVG Repo Mixer Tools -->
<svg fill="#000000" height="800px" width="800px" version="1.1" id="Layer_1" xmlns="http://www.w3.org/2000/svg" xmlns:xlink="http://www.w3.org/1999/xlink" 
	 viewBox="0 0 512 512" xml:space="preserve">
<g>
	<g>
		<path d="M461.565,72.664h-63.914c-7.294,0-13.484,4.472-15.79,11.179h-27.313c-2.282-6.707-8.495-11.257-15.823-11.257
			c-7.328,0-13.541,4.55-15.823,11.257H299.77c-2.282-6.707-8.495-11.257-15.823-11.257s-13.541,4.55-15.823,11.257h-24.25
			c-2.282-6.707-8.495-11.257-15.823-11.257c-7.328,0-13.541,4.55-15.823,11.257h-23.132c-2.282-6.707-8.495-11.257-15.823-11.257
			s-13.541,4.55-15.823,11.257H130.14c-2.306-6.707-8.496-11.179-15.79-11.179h-60.56C24.137,72.664,0,96.874,0,126.527v258.948
			c0,29.651,24.137,53.862,53.789,53.862h60.56c7.294,0,13.484-4.472,15.79-11.179h27.313c2.282,6.707,8.495,11.257,15.823,11.257
			s13.541-4.55,15.823-11.257h23.132c2.282,6.707,8.495,11.257,15.823,11.257s13.541-4.55,15.823-11.257h24.25
			c2.282,6.707,8.495,11.257,15.823,11.257s13.541-4.55,15.823-11.257h23.132c2.282,6.707,8.495,11.257,15.823,11.257
			c7.328,0,13.541-4.55,15.823-11.257h27.313c2.306,6.707,8.496,11.179,15.79,11.179h63.914c27.803,0,50.435-22.707,50.435-50.509
			V123.173C512,95.371,489.368,72.664,461.565,72.664z M97.258,405.799H53.789c-11.16,0-20.252-9.166-20.252-20.326V126.527
			c0-11.16,9.092-20.326,20.252-20.326h43.469V405.799z M156.507,394.62h-25.712V117.38h25.712V394.62z M211.284,394.62h-21.24
			V117.38h21.24V394.62z M267.179,394.62h-22.358V117.38h22.358V394.62z M321.956,394.62h-21.24V117.38h21.24V394.62z
			 M381.205,394.62h-25.712V117.38h25.712V394.62z M478.463,388.827c0,9.31-7.587,16.972-16.898,16.972h-46.822V106.201h46.822
			c9.311,0,16.898,7.662,16.898,16.972V388.827z"/>
	</g>
</g>
<g>
	<g>
		<circle cx="65.565" cy="155.881" r="18.089"/>
	</g>
</g>
<g>
	<g>
		<circle cx="65.565" cy="222.631" r="18.089"/>
	</g>
</g>
<g>
	<g>
		<circle cx="65.565" cy="289.369" r="18.089"/>
	</g>
</g>
<g>
	<g>
		<circle cx="65.565" cy="356.119" r="18.089"/>
	</g>
</g>
</svg>